# xmcd
#
# Track frame offsets:
#	150
#	17662
#	31540
#	52220
#	69197
#	82230
#	98162
#	113812
#	133665
#	147075
#	161755
#	177262
#
# Disc length: 2595 seconds
#
# Revision: 1
# Processed by: cddbd v1.5.2PL0 Copyright (c) Steve Scherf et al.
# Submitted via: audiograbber 1.83.01
#
DISCID=9d0a210c
DTITLE=Orig. Nockalm Quintett - Mein Herz sagt ja
DYEAR=1988
DGENRE=Folklore
TTITLE0=Gib mir als Souvenier ein kleines Bild von Dir
TTITLE1=Du bist für mich das Feuer
TTITLE2=Ich hab dich verloren
TTITLE3=Mein Herz sagt ja
TTITLE4=Oh Stephanie
TTITLE5=Das Cowboyleben
TTITLE6=Sie ist für mich ein Engel
TTITLE7=Du bist das Mädchen mit Gefühl
TTITLE8=Es war doch nur ein kleiner Flirt
TTITLE9=Blaue Augen so strahlend schön
TTITLE10=Nicht Heute und nicht Morgen denk ich nur an Dich
TTITLE11=Drei Finger aufs Herz
EXTD=
EXTT0=
EXTT1=
EXTT2=
EXTT3=
EXTT4=
EXTT5=
EXTT6=
EXTT7=
EXTT8=
EXTT9=
EXTT10=
EXTT11=
PLAYORDER=
